<mxfile host="65bd71144e">
    <diagram id="kxouKydCG6T7AjCTRhYj" name="Page-1">
        <mxGraphModel dx="2123" dy="2680" grid="1" gridSize="10" guides="1" tooltips="1" connect="1" arrows="1" fold="1" page="1" pageScale="1" pageWidth="1100" pageHeight="850" math="0" shadow="0">
            <root>
                <mxCell id="0"/>
                <mxCell id="1" parent="0"/>
                <mxCell id="15" value="" style="group" parent="1" vertex="1" connectable="0">
                    <mxGeometry x="29" y="-760" width="2130" height="810" as="geometry"/>
                </mxCell>
                <mxCell id="20" value="" style="group" parent="15" vertex="1" connectable="0">
                    <mxGeometry width="2130" height="810" as="geometry"/>
                </mxCell>
                <mxCell id="135" value="" style="group" parent="20" vertex="1" connectable="0">
                    <mxGeometry x="-9" y="-240" width="2130" height="710" as="geometry"/>
                </mxCell>
                <mxCell id="3" value="" style="rounded=0;whiteSpace=wrap;html=1;strokeColor=#999900;" parent="135" vertex="1">
                    <mxGeometry y="90" width="2130" height="620" as="geometry"/>
                </mxCell>
                <mxCell id="134" value="" style="rounded=0;whiteSpace=wrap;html=1;" parent="135" vertex="1">
                    <mxGeometry x="20" y="170" width="570" height="500" as="geometry"/>
                </mxCell>
                <mxCell id="8" value="&lt;span style=&quot;font-size: 50px;&quot;&gt;Capa: Vista&lt;/span&gt;" style="text;html=1;strokeColor=none;fillColor=none;align=left;verticalAlign=middle;whiteSpace=wrap;rounded=0;" parent="135" vertex="1">
                    <mxGeometry x="9" y="90" width="289" height="70" as="geometry"/>
                </mxCell>
                <mxCell id="155" value="&lt;p style=&quot;margin: 4px 0px 0px; text-align: center; font-size: 25px;&quot;&gt;&lt;b style=&quot;&quot;&gt;&lt;font style=&quot;font-size: 25px;&quot;&gt;LoginUI&lt;/font&gt;&lt;/b&gt;&lt;/p&gt;&lt;hr style=&quot;font-size: 25px;&quot; size=&quot;1&quot;&gt;&lt;div style=&quot;height: 2px; font-size: 25px;&quot;&gt;&lt;/div&gt;&lt;hr style=&quot;font-size: 25px;&quot; size=&quot;1&quot;&gt;&lt;div style=&quot;height: 2px; font-size: 25px;&quot;&gt;&lt;/div&gt;" style="verticalAlign=top;align=left;overflow=fill;fontSize=12;fontFamily=Helvetica;html=1;" parent="135" vertex="1">
                    <mxGeometry x="210" y="309.9999999999999" width="180" height="100" as="geometry"/>
                </mxCell>
                <mxCell id="156" value="&lt;p style=&quot;margin: 4px 0px 0px; text-align: center; font-size: 25px;&quot;&gt;&lt;b style=&quot;&quot;&gt;&lt;font style=&quot;font-size: 25px;&quot;&gt;SignupUI&lt;/font&gt;&lt;/b&gt;&lt;/p&gt;&lt;hr style=&quot;font-size: 25px;&quot; size=&quot;1&quot;&gt;&lt;div style=&quot;height: 2px; font-size: 25px;&quot;&gt;&lt;/div&gt;&lt;hr style=&quot;font-size: 25px;&quot; size=&quot;1&quot;&gt;&lt;div style=&quot;height: 2px; font-size: 25px;&quot;&gt;&lt;/div&gt;" style="verticalAlign=top;align=left;overflow=fill;fontSize=12;fontFamily=Helvetica;html=1;" parent="135" vertex="1">
                    <mxGeometry x="215" y="539.9999999999999" width="180" height="100" as="geometry"/>
                </mxCell>
                <mxCell id="157" value="" style="rounded=0;whiteSpace=wrap;html=1;" parent="135" vertex="1">
                    <mxGeometry x="630" y="170" width="1060" height="500" as="geometry"/>
                </mxCell>
                <mxCell id="169" style="edgeStyle=none;html=1;exitX=0.5;exitY=1;exitDx=0;exitDy=0;entryX=0.5;entryY=0;entryDx=0;entryDy=0;" parent="135" source="159" target="161" edge="1">
                    <mxGeometry relative="1" as="geometry"/>
                </mxCell>
                <mxCell id="170" style="edgeStyle=none;html=1;exitX=0.5;exitY=1;exitDx=0;exitDy=0;entryX=0.5;entryY=0;entryDx=0;entryDy=0;" parent="135" source="159" target="162" edge="1">
                    <mxGeometry relative="1" as="geometry">
                        <Array as="points">
                            <mxPoint x="1245" y="310"/>
                            <mxPoint x="1025" y="310"/>
                        </Array>
                    </mxGeometry>
                </mxCell>
                <mxCell id="171" style="edgeStyle=none;html=1;exitX=0.5;exitY=1;exitDx=0;exitDy=0;entryX=0.5;entryY=0;entryDx=0;entryDy=0;" parent="135" source="159" target="160" edge="1">
                    <mxGeometry relative="1" as="geometry">
                        <Array as="points">
                            <mxPoint x="1245" y="310"/>
                            <mxPoint x="1465" y="310"/>
                        </Array>
                    </mxGeometry>
                </mxCell>
                <mxCell id="159" value="&lt;p style=&quot;margin: 4px 0px 0px; text-align: center; font-size: 25px;&quot;&gt;&lt;b style=&quot;&quot;&gt;&lt;font style=&quot;font-size: 25px;&quot;&gt;DashUI&lt;/font&gt;&lt;/b&gt;&lt;/p&gt;&lt;hr style=&quot;font-size: 25px;&quot; size=&quot;1&quot;&gt;&lt;div style=&quot;height: 2px; font-size: 25px;&quot;&gt;&lt;/div&gt;&lt;hr style=&quot;font-size: 25px;&quot; size=&quot;1&quot;&gt;&lt;div style=&quot;height: 2px; font-size: 25px;&quot;&gt;&lt;/div&gt;" style="verticalAlign=top;align=left;overflow=fill;fontSize=12;fontFamily=Helvetica;html=1;" parent="135" vertex="1">
                    <mxGeometry x="1155" y="180" width="180" height="100" as="geometry"/>
                </mxCell>
                <mxCell id="160" value="&lt;p style=&quot;margin: 4px 0px 0px; text-align: center; font-size: 25px;&quot;&gt;&lt;b style=&quot;&quot;&gt;&lt;font style=&quot;font-size: 25px;&quot;&gt;MeUI&lt;/font&gt;&lt;/b&gt;&lt;/p&gt;&lt;hr style=&quot;font-size: 25px;&quot; size=&quot;1&quot;&gt;&lt;div style=&quot;height: 2px; font-size: 25px;&quot;&gt;&lt;/div&gt;&lt;hr style=&quot;font-size: 25px;&quot; size=&quot;1&quot;&gt;&lt;div style=&quot;height: 2px; font-size: 25px;&quot;&gt;&lt;/div&gt;" style="verticalAlign=top;align=left;overflow=fill;fontSize=12;fontFamily=Helvetica;html=1;" parent="135" vertex="1">
                    <mxGeometry x="1375" y="350" width="180" height="100" as="geometry"/>
                </mxCell>
                <mxCell id="161" value="&lt;p style=&quot;margin: 4px 0px 0px; text-align: center; font-size: 25px;&quot;&gt;&lt;b style=&quot;&quot;&gt;&lt;font style=&quot;font-size: 25px;&quot;&gt;StatisticsUI&lt;/font&gt;&lt;/b&gt;&lt;/p&gt;&lt;hr style=&quot;font-size: 25px;&quot; size=&quot;1&quot;&gt;&lt;div style=&quot;height: 2px; font-size: 25px;&quot;&gt;&lt;/div&gt;&lt;hr style=&quot;font-size: 25px;&quot; size=&quot;1&quot;&gt;&lt;div style=&quot;height: 2px; font-size: 25px;&quot;&gt;&lt;/div&gt;" style="verticalAlign=top;align=left;overflow=fill;fontSize=12;fontFamily=Helvetica;html=1;" parent="135" vertex="1">
                    <mxGeometry x="1155" y="350" width="180" height="100" as="geometry"/>
                </mxCell>
                <mxCell id="166" style="edgeStyle=none;html=1;exitX=0.5;exitY=1;exitDx=0;exitDy=0;entryX=0.5;entryY=0;entryDx=0;entryDy=0;" parent="135" source="162" target="164" edge="1">
                    <mxGeometry relative="1" as="geometry">
                        <Array as="points">
                            <mxPoint x="1025" y="480"/>
                            <mxPoint x="870" y="480"/>
                        </Array>
                    </mxGeometry>
                </mxCell>
                <mxCell id="167" style="edgeStyle=none;html=1;exitX=0.5;exitY=1;exitDx=0;exitDy=0;entryX=0.5;entryY=0;entryDx=0;entryDy=0;" parent="135" source="162" target="163" edge="1">
                    <mxGeometry relative="1" as="geometry">
                        <Array as="points">
                            <mxPoint x="1025" y="480"/>
                            <mxPoint x="1090" y="480"/>
                        </Array>
                    </mxGeometry>
                </mxCell>
                <mxCell id="168" style="edgeStyle=none;html=1;exitX=0.5;exitY=1;exitDx=0;exitDy=0;entryX=0.5;entryY=0;entryDx=0;entryDy=0;" parent="135" source="162" target="165" edge="1">
                    <mxGeometry relative="1" as="geometry">
                        <Array as="points">
                            <mxPoint x="1025" y="480"/>
                            <mxPoint x="1310" y="480"/>
                        </Array>
                    </mxGeometry>
                </mxCell>
                <mxCell id="162" value="&lt;p style=&quot;margin: 4px 0px 0px; text-align: center; font-size: 25px;&quot;&gt;&lt;b style=&quot;&quot;&gt;&lt;font style=&quot;font-size: 25px;&quot;&gt;WorkoutUI&lt;/font&gt;&lt;/b&gt;&lt;/p&gt;&lt;hr style=&quot;font-size: 25px;&quot; size=&quot;1&quot;&gt;&lt;div style=&quot;height: 2px; font-size: 25px;&quot;&gt;&lt;/div&gt;&lt;hr style=&quot;font-size: 25px;&quot; size=&quot;1&quot;&gt;&lt;div style=&quot;height: 2px; font-size: 25px;&quot;&gt;&lt;/div&gt;" style="verticalAlign=top;align=left;overflow=fill;fontSize=12;fontFamily=Helvetica;html=1;" parent="135" vertex="1">
                    <mxGeometry x="935" y="350" width="180" height="100" as="geometry"/>
                </mxCell>
                <mxCell id="163" value="&lt;p style=&quot;margin: 4px 0px 0px; text-align: center; font-size: 25px;&quot;&gt;&lt;b style=&quot;&quot;&gt;&lt;font style=&quot;font-size: 25px;&quot;&gt;LiteUI&lt;/font&gt;&lt;/b&gt;&lt;/p&gt;&lt;hr style=&quot;font-size: 25px;&quot; size=&quot;1&quot;&gt;&lt;div style=&quot;height: 2px; font-size: 25px;&quot;&gt;&lt;/div&gt;&lt;hr style=&quot;font-size: 25px;&quot; size=&quot;1&quot;&gt;&lt;div style=&quot;height: 2px; font-size: 25px;&quot;&gt;&lt;/div&gt;" style="verticalAlign=top;align=left;overflow=fill;fontSize=12;fontFamily=Helvetica;html=1;" parent="135" vertex="1">
                    <mxGeometry x="1000" y="550" width="180" height="100" as="geometry"/>
                </mxCell>
                <mxCell id="164" value="&lt;p style=&quot;margin: 4px 0px 0px; text-align: center; font-size: 25px;&quot;&gt;&lt;b style=&quot;&quot;&gt;&lt;font style=&quot;font-size: 25px;&quot;&gt;ClinicUI&lt;/font&gt;&lt;/b&gt;&lt;/p&gt;&lt;hr style=&quot;font-size: 25px;&quot; size=&quot;1&quot;&gt;&lt;div style=&quot;height: 2px; font-size: 25px;&quot;&gt;&lt;/div&gt;&lt;hr style=&quot;font-size: 25px;&quot; size=&quot;1&quot;&gt;&lt;div style=&quot;height: 2px; font-size: 25px;&quot;&gt;&lt;/div&gt;" style="verticalAlign=top;align=left;overflow=fill;fontSize=12;fontFamily=Helvetica;html=1;" parent="135" vertex="1">
                    <mxGeometry x="780" y="550" width="180" height="100" as="geometry"/>
                </mxCell>
                <mxCell id="165" value="&lt;p style=&quot;margin: 4px 0px 0px; text-align: center; font-size: 25px;&quot;&gt;&lt;b style=&quot;&quot;&gt;&lt;font style=&quot;font-size: 25px;&quot;&gt;CalibrateUI&lt;/font&gt;&lt;/b&gt;&lt;/p&gt;&lt;hr style=&quot;font-size: 25px;&quot; size=&quot;1&quot;&gt;&lt;div style=&quot;height: 2px; font-size: 25px;&quot;&gt;&lt;/div&gt;&lt;hr style=&quot;font-size: 25px;&quot; size=&quot;1&quot;&gt;&lt;div style=&quot;height: 2px; font-size: 25px;&quot;&gt;&lt;/div&gt;" style="verticalAlign=top;align=left;overflow=fill;fontSize=12;fontFamily=Helvetica;html=1;" parent="135" vertex="1">
                    <mxGeometry x="1220" y="550" width="180" height="100" as="geometry"/>
                </mxCell>
                <mxCell id="179" value="" style="rounded=0;whiteSpace=wrap;html=1;" parent="135" vertex="1">
                    <mxGeometry x="1720" y="170" width="360" height="500" as="geometry"/>
                </mxCell>
                <mxCell id="193" value="&lt;p style=&quot;margin: 4px 0px 0px; text-align: center; font-size: 25px;&quot;&gt;&lt;b style=&quot;&quot;&gt;&lt;font style=&quot;font-size: 25px;&quot;&gt;GameClinicUI&lt;/font&gt;&lt;/b&gt;&lt;/p&gt;&lt;hr style=&quot;font-size: 25px;&quot; size=&quot;1&quot;&gt;&lt;div style=&quot;height: 2px; font-size: 25px;&quot;&gt;&lt;/div&gt;&lt;hr style=&quot;font-size: 25px;&quot; size=&quot;1&quot;&gt;&lt;div style=&quot;height: 2px; font-size: 25px;&quot;&gt;&lt;/div&gt;" style="verticalAlign=top;align=left;overflow=fill;fontSize=12;fontFamily=Helvetica;html=1;" parent="135" vertex="1">
                    <mxGeometry x="1810" y="180" width="180" height="100" as="geometry"/>
                </mxCell>
                <mxCell id="194" value="&lt;p style=&quot;margin: 4px 0px 0px; text-align: center; font-size: 25px;&quot;&gt;&lt;b style=&quot;&quot;&gt;&lt;font style=&quot;font-size: 25px;&quot;&gt;GameLiteUI&lt;/font&gt;&lt;/b&gt;&lt;/p&gt;&lt;hr style=&quot;font-size: 25px;&quot; size=&quot;1&quot;&gt;&lt;div style=&quot;height: 2px; font-size: 25px;&quot;&gt;&lt;/div&gt;&lt;hr style=&quot;font-size: 25px;&quot; size=&quot;1&quot;&gt;&lt;div style=&quot;height: 2px; font-size: 25px;&quot;&gt;&lt;/div&gt;" style="verticalAlign=top;align=left;overflow=fill;fontSize=12;fontFamily=Helvetica;html=1;" parent="135" vertex="1">
                    <mxGeometry x="1810" y="550" width="180" height="100" as="geometry"/>
                </mxCell>
                <mxCell id="14" value="" style="group" parent="1" vertex="1" connectable="0">
                    <mxGeometry x="29" y="520" width="2130" height="420" as="geometry"/>
                </mxCell>
                <mxCell id="21" value="" style="group;fillColor=#a20025;fontColor=#ffffff;strokeColor=#6F0000;" parent="14" vertex="1" connectable="0">
                    <mxGeometry y="21" width="2130" height="402.93749999999994" as="geometry"/>
                </mxCell>
                <mxCell id="5" value="" style="rounded=0;whiteSpace=wrap;html=1;strokeColor=#FF0000;" parent="21" vertex="1">
                    <mxGeometry y="0.08035714285714324" width="2130" height="402.8571428571428" as="geometry"/>
                </mxCell>
                <mxCell id="7" value="&lt;span style=&quot;font-size: 50px;&quot;&gt;Capa: Modelo&lt;/span&gt;" style="text;html=1;strokeColor=none;fillColor=none;align=left;verticalAlign=middle;whiteSpace=wrap;rounded=0;" parent="21" vertex="1">
                    <mxGeometry x="11" y="1" width="319" height="70" as="geometry"/>
                </mxCell>
                <mxCell id="95" style="edgeStyle=none;html=1;exitX=1;exitY=0.5;exitDx=0;exitDy=0;entryX=0.5;entryY=0;entryDx=0;entryDy=0;fontSize=25;endArrow=classicThin;endFill=1;endSize=6;" parent="21" source="88" edge="1">
                    <mxGeometry relative="1" as="geometry">
                        <Array as="points">
                            <mxPoint x="1906" y="129"/>
                        </Array>
                        <mxPoint x="1905.5" y="249" as="targetPoint"/>
                    </mxGeometry>
                </mxCell>
                <mxCell id="88" value="&lt;p style=&quot;margin: 4px 0px 0px; text-align: center; font-size: 25px;&quot;&gt;&lt;b style=&quot;&quot;&gt;&lt;font style=&quot;font-size: 25px;&quot;&gt;CibiofibDb&lt;/font&gt;&lt;/b&gt;&lt;/p&gt;&lt;hr style=&quot;font-size: 25px;&quot; size=&quot;1&quot;&gt;&lt;div style=&quot;height: 2px; font-size: 25px;&quot;&gt;&lt;/div&gt;&lt;hr style=&quot;font-size: 25px;&quot; size=&quot;1&quot;&gt;&lt;div style=&quot;height: 2px; font-size: 25px;&quot;&gt;&lt;/div&gt;" style="verticalAlign=top;align=left;overflow=fill;fontSize=12;fontFamily=Helvetica;html=1;" parent="21" vertex="1">
                    <mxGeometry x="641" y="59" width="269" height="132.13" as="geometry"/>
                </mxCell>
                <mxCell id="91" style="edgeStyle=none;html=1;exitX=0;exitY=0.381;exitDx=0;exitDy=0;entryX=0;entryY=0.5;entryDx=0;entryDy=0;fontSize=25;endArrow=block;endFill=0;endSize=24;exitPerimeter=0;" parent="21" source="88" edge="1">
                    <mxGeometry relative="1" as="geometry">
                        <Array as="points">
                            <mxPoint x="571" y="109"/>
                            <mxPoint x="571" y="315"/>
                        </Array>
                        <mxPoint x="641" y="315.0650000000005" as="targetPoint"/>
                    </mxGeometry>
                </mxCell>
                <mxCell id="102" value="" style="endArrow=classic;html=1;fontSize=25;endSize=6;entryX=0.5;entryY=0;entryDx=0;entryDy=0;" parent="21" edge="1">
                    <mxGeometry width="50" height="50" relative="1" as="geometry">
                        <mxPoint x="1236" y="129" as="sourcePoint"/>
                        <mxPoint x="1235.5" y="249" as="targetPoint"/>
                    </mxGeometry>
                </mxCell>
                <mxCell id="103" value="" style="endArrow=classic;html=1;fontSize=25;endSize=6;entryX=0.5;entryY=0;entryDx=0;entryDy=0;" parent="21" edge="1">
                    <mxGeometry width="50" height="50" relative="1" as="geometry">
                        <mxPoint x="1575.17" y="129" as="sourcePoint"/>
                        <mxPoint x="1574.67" y="249" as="targetPoint"/>
                    </mxGeometry>
                </mxCell>
                <mxCell id="196" value="&lt;p style=&quot;margin: 4px 0px 0px; text-align: center; font-size: 25px;&quot;&gt;&lt;b style=&quot;&quot;&gt;&lt;font style=&quot;font-size: 25px;&quot;&gt;UserEntity&lt;/font&gt;&lt;/b&gt;&lt;/p&gt;&lt;hr style=&quot;font-size: 25px;&quot; size=&quot;1&quot;&gt;&lt;div style=&quot;height: 2px; font-size: 25px;&quot;&gt;&lt;/div&gt;&lt;hr style=&quot;font-size: 25px;&quot; size=&quot;1&quot;&gt;&lt;div style=&quot;height: 2px; font-size: 25px;&quot;&gt;&lt;/div&gt;" style="verticalAlign=top;align=left;overflow=fill;fontSize=12;fontFamily=Helvetica;html=1;" parent="21" vertex="1">
                    <mxGeometry x="1121" y="249" width="239" height="132.13" as="geometry"/>
                </mxCell>
                <mxCell id="197" value="&lt;p style=&quot;margin: 4px 0px 0px; text-align: center; font-size: 25px;&quot;&gt;&lt;b style=&quot;&quot;&gt;&lt;font style=&quot;font-size: 25px;&quot;&gt;RutineEntity&lt;/font&gt;&lt;/b&gt;&lt;/p&gt;&lt;hr style=&quot;font-size: 25px;&quot; size=&quot;1&quot;&gt;&lt;div style=&quot;height: 2px; font-size: 25px;&quot;&gt;&lt;/div&gt;&lt;hr style=&quot;font-size: 25px;&quot; size=&quot;1&quot;&gt;&lt;div style=&quot;height: 2px; font-size: 25px;&quot;&gt;&lt;/div&gt;" style="verticalAlign=top;align=left;overflow=fill;fontSize=12;fontFamily=Helvetica;html=1;" parent="21" vertex="1">
                    <mxGeometry x="1461" y="249" width="239" height="132.13" as="geometry"/>
                </mxCell>
                <mxCell id="198" value="&lt;p style=&quot;margin: 4px 0px 0px; text-align: center; font-size: 25px;&quot;&gt;&lt;b style=&quot;&quot;&gt;&lt;font style=&quot;font-size: 25px;&quot;&gt;DoEntity&lt;/font&gt;&lt;/b&gt;&lt;/p&gt;&lt;hr style=&quot;font-size: 25px;&quot; size=&quot;1&quot;&gt;&lt;div style=&quot;height: 2px; font-size: 25px;&quot;&gt;&lt;/div&gt;&lt;hr style=&quot;font-size: 25px;&quot; size=&quot;1&quot;&gt;&lt;div style=&quot;height: 2px; font-size: 25px;&quot;&gt;&lt;/div&gt;" style="verticalAlign=top;align=left;overflow=fill;fontSize=12;fontFamily=Helvetica;html=1;" parent="21" vertex="1">
                    <mxGeometry x="1781" y="249" width="239" height="132.13" as="geometry"/>
                </mxCell>
                <mxCell id="199" value="&lt;p style=&quot;margin: 4px 0px 0px; text-align: center; font-size: 25px;&quot;&gt;&lt;b style=&quot;&quot;&gt;&lt;font style=&quot;font-size: 25px;&quot;&gt;DataBaseModel&lt;/font&gt;&lt;/b&gt;&lt;/p&gt;&lt;hr style=&quot;font-size: 25px;&quot; size=&quot;1&quot;&gt;&lt;div style=&quot;height: 2px; font-size: 25px;&quot;&gt;&lt;/div&gt;&lt;hr style=&quot;font-size: 25px;&quot; size=&quot;1&quot;&gt;&lt;div style=&quot;height: 2px; font-size: 25px;&quot;&gt;&lt;/div&gt;" style="verticalAlign=top;align=left;overflow=fill;fontSize=12;fontFamily=Helvetica;html=1;" parent="21" vertex="1">
                    <mxGeometry x="641" y="249" width="269" height="132.13" as="geometry"/>
                </mxCell>
                <mxCell id="104" style="edgeStyle=none;html=1;exitX=0.859;exitY=1.027;exitDx=0;exitDy=0;entryX=0;entryY=0.75;entryDx=0;entryDy=0;fontSize=25;endArrow=classicThin;endFill=1;endSize=6;exitPerimeter=0;" parent="1" source="41" target="88" edge="1">
                    <mxGeometry relative="1" as="geometry">
                        <Array as="points">
                            <mxPoint x="380" y="699"/>
                        </Array>
                    </mxGeometry>
                </mxCell>
                <mxCell id="105" style="edgeStyle=none;html=1;exitX=1;exitY=0.5;exitDx=0;exitDy=0;entryX=0;entryY=0.25;entryDx=0;entryDy=0;fontSize=25;endArrow=classicThin;endFill=1;endSize=6;" parent="1" source="31" target="88" edge="1">
                    <mxGeometry relative="1" as="geometry">
                        <Array as="points">
                            <mxPoint x="450" y="86"/>
                            <mxPoint x="450" y="633"/>
                        </Array>
                    </mxGeometry>
                </mxCell>
                <mxCell id="106" style="edgeStyle=none;html=1;entryX=0.5;entryY=0;entryDx=0;entryDy=0;fontSize=25;endArrow=classicThin;endFill=1;endSize=6;" parent="1" target="88" edge="1">
                    <mxGeometry relative="1" as="geometry">
                        <mxPoint x="804" y="400" as="sourcePoint"/>
                    </mxGeometry>
                </mxCell>
                <mxCell id="107" style="edgeStyle=none;html=1;exitX=0.25;exitY=1;exitDx=0;exitDy=0;entryX=1;entryY=0.25;entryDx=0;entryDy=0;fontSize=25;endArrow=classicThin;endFill=1;endSize=6;" parent="1" source="46" target="88" edge="1">
                    <mxGeometry relative="1" as="geometry">
                        <Array as="points">
                            <mxPoint x="1030" y="633"/>
                        </Array>
                    </mxGeometry>
                </mxCell>
                <mxCell id="108" style="edgeStyle=none;html=1;exitX=0.25;exitY=1;exitDx=0;exitDy=0;entryX=1;entryY=0;entryDx=0;entryDy=0;fontSize=25;endArrow=classicThin;endFill=1;endSize=6;" parent="1" source="43" target="88" edge="1">
                    <mxGeometry relative="1" as="geometry">
                        <Array as="points">
                            <mxPoint x="1360" y="600"/>
                        </Array>
                    </mxGeometry>
                </mxCell>
                <mxCell id="110" style="edgeStyle=none;html=1;exitX=0.25;exitY=1;exitDx=0;exitDy=0;entryX=1;entryY=0.25;entryDx=0;entryDy=0;fontSize=25;endArrow=classicThin;endFill=1;endSize=6;" parent="1" source="109" target="88" edge="1">
                    <mxGeometry relative="1" as="geometry">
                        <Array as="points">
                            <mxPoint x="1845" y="633"/>
                        </Array>
                    </mxGeometry>
                </mxCell>
                <mxCell id="174" style="edgeStyle=none;html=1;exitX=0;exitY=0.5;exitDx=0;exitDy=0;entryX=0;entryY=0.5;entryDx=0;entryDy=0;" parent="1" source="41" target="156" edge="1">
                    <mxGeometry relative="1" as="geometry">
                        <Array as="points">
                            <mxPoint x="-40" y="336"/>
                            <mxPoint x="-40" y="-410"/>
                        </Array>
                    </mxGeometry>
                </mxCell>
                <mxCell id="180" value="" style="group" parent="1" vertex="1" connectable="0">
                    <mxGeometry x="29" y="-220" width="2130" height="690" as="geometry"/>
                </mxCell>
                <mxCell id="17" value="" style="group" parent="180" vertex="1" connectable="0">
                    <mxGeometry width="2130" height="690" as="geometry"/>
                </mxCell>
                <mxCell id="6" value="&lt;span style=&quot;font-size: 50px;&quot;&gt;Capa: Controlador&lt;/span&gt;" style="text;html=1;strokeColor=none;fillColor=none;align=left;verticalAlign=middle;whiteSpace=wrap;rounded=0;" parent="17" vertex="1">
                    <mxGeometry x="11" width="419" height="90" as="geometry"/>
                </mxCell>
                <mxCell id="4" value="" style="rounded=0;whiteSpace=wrap;html=1;strokeColor=#3333FF;" parent="17" vertex="1">
                    <mxGeometry width="2130" height="690" as="geometry"/>
                </mxCell>
                <mxCell id="2" value="" style="rounded=0;whiteSpace=wrap;html=1;" parent="17" vertex="1">
                    <mxGeometry x="61" y="220" width="389" height="420" as="geometry"/>
                </mxCell>
                <mxCell id="22" value="" style="rounded=0;whiteSpace=wrap;html=1;" parent="17" vertex="1">
                    <mxGeometry x="521" y="220" width="1069" height="420" as="geometry"/>
                </mxCell>
                <mxCell id="23" value="" style="rounded=0;whiteSpace=wrap;html=1;" parent="17" vertex="1">
                    <mxGeometry x="1721" y="220" width="340" height="420" as="geometry"/>
                </mxCell>
                <mxCell id="58" style="edgeStyle=none;html=1;exitX=0.5;exitY=0;exitDx=0;exitDy=0;entryX=0.5;entryY=0;entryDx=0;entryDy=0;fontSize=25;" parent="17" source="31" target="44" edge="1">
                    <mxGeometry relative="1" as="geometry">
                        <Array as="points">
                            <mxPoint x="251" y="190"/>
                            <mxPoint x="1056" y="190"/>
                        </Array>
                    </mxGeometry>
                </mxCell>
                <mxCell id="31" value="&lt;p style=&quot;margin: 4px 0px 0px; text-align: center; font-size: 25px;&quot;&gt;&lt;b style=&quot;&quot;&gt;&lt;font style=&quot;font-size: 25px;&quot;&gt;LoginUIController&lt;/font&gt;&lt;/b&gt;&lt;/p&gt;&lt;hr style=&quot;font-size: 25px;&quot; size=&quot;1&quot;&gt;&lt;div style=&quot;height: 2px; font-size: 25px;&quot;&gt;&lt;/div&gt;&lt;hr style=&quot;font-size: 25px;&quot; size=&quot;1&quot;&gt;&lt;div style=&quot;height: 2px; font-size: 25px;&quot;&gt;&lt;/div&gt;" style="verticalAlign=top;align=left;overflow=fill;fontSize=12;fontFamily=Helvetica;html=1;" parent="17" vertex="1">
                    <mxGeometry x="116.5" y="240" width="269" height="132.13" as="geometry"/>
                </mxCell>
                <mxCell id="52" style="edgeStyle=none;html=1;exitX=0;exitY=0.5;exitDx=0;exitDy=0;entryX=0;entryY=0.5;entryDx=0;entryDy=0;fontSize=25;" parent="17" source="41" target="31" edge="1">
                    <mxGeometry relative="1" as="geometry">
                        <Array as="points">
                            <mxPoint x="81" y="556"/>
                            <mxPoint x="81" y="306"/>
                        </Array>
                    </mxGeometry>
                </mxCell>
                <mxCell id="41" value="&lt;p style=&quot;margin: 4px 0px 0px; text-align: center; font-size: 25px;&quot;&gt;&lt;b style=&quot;&quot;&gt;&lt;font style=&quot;font-size: 25px;&quot;&gt;SignupUIController&lt;/font&gt;&lt;/b&gt;&lt;/p&gt;&lt;hr style=&quot;font-size: 25px;&quot; size=&quot;1&quot;&gt;&lt;div style=&quot;height: 2px; font-size: 25px;&quot;&gt;&lt;/div&gt;&lt;hr style=&quot;font-size: 25px;&quot; size=&quot;1&quot;&gt;&lt;div style=&quot;height: 2px; font-size: 25px;&quot;&gt;&lt;/div&gt;" style="verticalAlign=top;align=left;overflow=fill;fontSize=12;fontFamily=Helvetica;html=1;" parent="17" vertex="1">
                    <mxGeometry x="121" y="490" width="269" height="132.13" as="geometry"/>
                </mxCell>
                <mxCell id="42" value="&lt;p style=&quot;margin: 4px 0px 0px; text-align: center; font-size: 25px;&quot;&gt;&lt;b style=&quot;&quot;&gt;&lt;font style=&quot;font-size: 25px;&quot;&gt;CalibrateUIController&lt;/font&gt;&lt;/b&gt;&lt;/p&gt;&lt;hr style=&quot;font-size: 25px;&quot; size=&quot;1&quot;&gt;&lt;div style=&quot;height: 2px; font-size: 25px;&quot;&gt;&lt;/div&gt;&lt;hr style=&quot;font-size: 25px;&quot; size=&quot;1&quot;&gt;&lt;div style=&quot;height: 2px; font-size: 25px;&quot;&gt;&lt;/div&gt;" style="verticalAlign=top;align=left;overflow=fill;fontSize=12;fontFamily=Helvetica;html=1;" parent="17" vertex="1">
                    <mxGeometry x="541" y="240" width="299" height="132.13" as="geometry"/>
                </mxCell>
                <mxCell id="43" value="&lt;p style=&quot;margin: 4px 0px 0px; text-align: center; font-size: 25px;&quot;&gt;&lt;b style=&quot;&quot;&gt;&lt;font style=&quot;font-size: 25px;&quot;&gt;StatisticsUIController&lt;/font&gt;&lt;/b&gt;&lt;/p&gt;&lt;hr style=&quot;font-size: 25px;&quot; size=&quot;1&quot;&gt;&lt;div style=&quot;height: 2px; font-size: 25px;&quot;&gt;&lt;/div&gt;&lt;hr style=&quot;font-size: 25px;&quot; size=&quot;1&quot;&gt;&lt;div style=&quot;height: 2px; font-size: 25px;&quot;&gt;&lt;/div&gt;" style="verticalAlign=top;align=left;overflow=fill;fontSize=12;fontFamily=Helvetica;html=1;" parent="17" vertex="1">
                    <mxGeometry x="1261" y="490" width="299" height="132.13" as="geometry"/>
                </mxCell>
                <mxCell id="53" style="edgeStyle=none;html=1;exitX=0.5;exitY=1;exitDx=0;exitDy=0;entryX=0.5;entryY=0;entryDx=0;entryDy=0;fontSize=25;" parent="17" source="44" target="46" edge="1">
                    <mxGeometry relative="1" as="geometry"/>
                </mxCell>
                <mxCell id="44" value="&lt;p style=&quot;margin: 4px 0px 0px; text-align: center; font-size: 25px;&quot;&gt;&lt;b style=&quot;&quot;&gt;&lt;font style=&quot;font-size: 25px;&quot;&gt;DashUIController&lt;/font&gt;&lt;/b&gt;&lt;/p&gt;&lt;hr style=&quot;font-size: 25px;&quot; size=&quot;1&quot;&gt;&lt;div style=&quot;height: 2px; font-size: 25px;&quot;&gt;&lt;/div&gt;&lt;hr style=&quot;font-size: 25px;&quot; size=&quot;1&quot;&gt;&lt;div style=&quot;height: 2px; font-size: 25px;&quot;&gt;&lt;/div&gt;" style="verticalAlign=top;align=left;overflow=fill;fontSize=12;fontFamily=Helvetica;html=1;" parent="17" vertex="1">
                    <mxGeometry x="906" y="240" width="299" height="132.13" as="geometry"/>
                </mxCell>
                <mxCell id="57" style="edgeStyle=none;html=1;exitX=0.25;exitY=0;exitDx=0;exitDy=0;fontSize=25;entryX=0.25;entryY=1;entryDx=0;entryDy=0;" parent="17" source="45" target="42" edge="1">
                    <mxGeometry relative="1" as="geometry"/>
                </mxCell>
                <mxCell id="64" style="edgeStyle=none;html=1;exitX=0.5;exitY=1;exitDx=0;exitDy=0;fontSize=25;entryX=0.5;entryY=1;entryDx=0;entryDy=0;" parent="17" source="45" target="109" edge="1">
                    <mxGeometry relative="1" as="geometry">
                        <mxPoint x="1891" y="590" as="targetPoint"/>
                        <Array as="points">
                            <mxPoint x="691" y="740"/>
                            <mxPoint x="1891" y="740"/>
                        </Array>
                    </mxGeometry>
                </mxCell>
                <mxCell id="45" value="&lt;p style=&quot;margin: 4px 0px 0px; text-align: center; font-size: 25px;&quot;&gt;&lt;b style=&quot;&quot;&gt;&lt;font style=&quot;font-size: 25px;&quot;&gt;WorkoutUIController&lt;/font&gt;&lt;/b&gt;&lt;/p&gt;&lt;hr style=&quot;font-size: 25px;&quot; size=&quot;1&quot;&gt;&lt;div style=&quot;height: 2px; font-size: 25px;&quot;&gt;&lt;/div&gt;&lt;hr style=&quot;font-size: 25px;&quot; size=&quot;1&quot;&gt;&lt;div style=&quot;height: 2px; font-size: 25px;&quot;&gt;&lt;/div&gt;" style="verticalAlign=top;align=left;overflow=fill;fontSize=12;fontFamily=Helvetica;html=1;" parent="17" vertex="1">
                    <mxGeometry x="541" y="490" width="299" height="132.13" as="geometry"/>
                </mxCell>
                <mxCell id="46" value="&lt;p style=&quot;margin: 4px 0px 0px; text-align: center; font-size: 25px;&quot;&gt;&lt;b style=&quot;&quot;&gt;&lt;font style=&quot;font-size: 25px;&quot;&gt;MeUIController&lt;/font&gt;&lt;/b&gt;&lt;/p&gt;&lt;hr style=&quot;font-size: 25px;&quot; size=&quot;1&quot;&gt;&lt;div style=&quot;height: 2px; font-size: 25px;&quot;&gt;&lt;/div&gt;&lt;hr style=&quot;font-size: 25px;&quot; size=&quot;1&quot;&gt;&lt;div style=&quot;height: 2px; font-size: 25px;&quot;&gt;&lt;/div&gt;" style="verticalAlign=top;align=left;overflow=fill;fontSize=12;fontFamily=Helvetica;html=1;" parent="17" vertex="1">
                    <mxGeometry x="936" y="490" width="239" height="132.13" as="geometry"/>
                </mxCell>
                <mxCell id="60" style="edgeStyle=none;html=1;exitX=0;exitY=0.5;exitDx=0;exitDy=0;entryX=0.25;entryY=0;entryDx=0;entryDy=0;fontSize=25;" parent="17" target="31" edge="1">
                    <mxGeometry relative="1" as="geometry">
                        <Array as="points">
                            <mxPoint x="184" y="96"/>
                        </Array>
                        <mxPoint x="955" y="96.0642553191492" as="sourcePoint"/>
                    </mxGeometry>
                </mxCell>
                <mxCell id="61" style="edgeStyle=none;html=1;entryX=1;entryY=0.75;entryDx=0;entryDy=0;fontSize=25;" parent="17" target="45" edge="1">
                    <mxGeometry relative="1" as="geometry">
                        <mxPoint x="881" y="100" as="sourcePoint"/>
                        <Array as="points">
                            <mxPoint x="881" y="589"/>
                        </Array>
                    </mxGeometry>
                </mxCell>
                <mxCell id="62" value="&lt;p style=&quot;margin: 4px 0px 0px; text-align: center; font-size: 25px;&quot;&gt;&lt;b style=&quot;&quot;&gt;&lt;font style=&quot;font-size: 25px;&quot;&gt;GameUIController&lt;/font&gt;&lt;/b&gt;&lt;/p&gt;&lt;hr style=&quot;font-size: 25px;&quot; size=&quot;1&quot;&gt;&lt;div style=&quot;height: 2px; font-size: 25px;&quot;&gt;&lt;/div&gt;&lt;hr style=&quot;font-size: 25px;&quot; size=&quot;1&quot;&gt;&lt;div style=&quot;height: 2px; font-size: 25px;&quot;&gt;&lt;/div&gt;" style="verticalAlign=top;align=left;overflow=fill;fontSize=12;fontFamily=Helvetica;html=1;" parent="17" vertex="1">
                    <mxGeometry x="1741" y="240" width="299" height="132.13" as="geometry"/>
                </mxCell>
                <mxCell id="63" style="edgeStyle=none;html=1;exitX=1;exitY=0.5;exitDx=0;exitDy=0;fontSize=25;entryX=0.5;entryY=0;entryDx=0;entryDy=0;" parent="17" target="62" edge="1">
                    <mxGeometry relative="1" as="geometry">
                        <Array as="points">
                            <mxPoint x="1891" y="100"/>
                        </Array>
                        <mxPoint x="1175" y="96.0642553191492" as="sourcePoint"/>
                    </mxGeometry>
                </mxCell>
                <mxCell id="109" value="&lt;p style=&quot;margin: 4px 0px 0px; text-align: center; font-size: 25px;&quot;&gt;&lt;b&gt;GameCreator&lt;/b&gt;&lt;/p&gt;&lt;hr style=&quot;font-size: 25px;&quot; size=&quot;1&quot;&gt;&lt;div style=&quot;height: 2px; font-size: 25px;&quot;&gt;&lt;/div&gt;&lt;hr style=&quot;font-size: 25px;&quot; size=&quot;1&quot;&gt;&lt;div style=&quot;height: 2px; font-size: 25px;&quot;&gt;&lt;/div&gt;" style="verticalAlign=top;align=left;overflow=fill;fontSize=12;fontFamily=Helvetica;html=1;" parent="17" vertex="1">
                    <mxGeometry x="1741.5" y="490" width="299" height="132.13" as="geometry"/>
                </mxCell>
                <mxCell id="153" value="&lt;span style=&quot;font-size: 50px;&quot;&gt;Capa: Control&lt;/span&gt;" style="text;html=1;strokeColor=none;fillColor=none;align=left;verticalAlign=middle;whiteSpace=wrap;rounded=0;" parent="17" vertex="1">
                    <mxGeometry x="8" y="10" width="330" height="60" as="geometry"/>
                </mxCell>
                <mxCell id="200" value="&lt;p style=&quot;margin: 4px 0px 0px; text-align: center; font-size: 25px;&quot;&gt;&lt;b style=&quot;&quot;&gt;&lt;font style=&quot;font-size: 25px;&quot;&gt;GameManager&lt;/font&gt;&lt;/b&gt;&lt;/p&gt;&lt;hr style=&quot;font-size: 25px;&quot; size=&quot;1&quot;&gt;&lt;div style=&quot;height: 2px; font-size: 25px;&quot;&gt;&lt;/div&gt;&lt;hr style=&quot;font-size: 25px;&quot; size=&quot;1&quot;&gt;&lt;div style=&quot;height: 2px; font-size: 25px;&quot;&gt;&lt;/div&gt;" style="verticalAlign=top;align=left;overflow=fill;fontSize=12;fontFamily=Helvetica;html=1;" parent="17" vertex="1">
                    <mxGeometry x="936" y="30" width="299" height="132.13" as="geometry"/>
                </mxCell>
                <mxCell id="55" value="" style="edgeStyle=segmentEdgeStyle;endArrow=classic;html=1;curved=0;rounded=0;endSize=8;startSize=8;fontSize=25;" parent="180" target="45" edge="1">
                    <mxGeometry width="50" height="50" relative="1" as="geometry">
                        <mxPoint x="1056" y="440" as="sourcePoint"/>
                        <mxPoint x="1011" y="340" as="targetPoint"/>
                    </mxGeometry>
                </mxCell>
                <mxCell id="56" value="" style="edgeStyle=segmentEdgeStyle;endArrow=classic;html=1;curved=0;rounded=0;endSize=8;startSize=8;fontSize=25;entryX=0.5;entryY=0;entryDx=0;entryDy=0;" parent="180" target="43" edge="1">
                    <mxGeometry width="50" height="50" relative="1" as="geometry">
                        <mxPoint x="1051" y="440" as="sourcePoint"/>
                        <mxPoint x="700.5555555555554" y="500" as="targetPoint"/>
                    </mxGeometry>
                </mxCell>
                <mxCell id="177" style="edgeStyle=none;html=1;exitX=0;exitY=0.5;exitDx=0;exitDy=0;entryX=0;entryY=0.5;entryDx=0;entryDy=0;" parent="1" source="45" target="162" edge="1">
                    <mxGeometry relative="1" as="geometry">
                        <Array as="points">
                            <mxPoint x="530" y="336"/>
                            <mxPoint x="530" y="-250"/>
                            <mxPoint x="700" y="-250"/>
                            <mxPoint x="700" y="-600"/>
                        </Array>
                    </mxGeometry>
                </mxCell>
                <mxCell id="175" style="edgeStyle=none;html=1;exitX=0.5;exitY=0;exitDx=0;exitDy=0;entryX=0.5;entryY=1;entryDx=0;entryDy=0;" parent="1" source="42" target="165" edge="1">
                    <mxGeometry relative="1" as="geometry">
                        <Array as="points">
                            <mxPoint x="720" y="-240"/>
                            <mxPoint x="1330" y="-240"/>
                        </Array>
                    </mxGeometry>
                </mxCell>
                <mxCell id="178" style="edgeStyle=none;html=1;exitX=1;exitY=0.5;exitDx=0;exitDy=0;entryX=1;entryY=0.5;entryDx=0;entryDy=0;" parent="1" source="44" target="159" edge="1">
                    <mxGeometry relative="1" as="geometry">
                        <Array as="points">
                            <mxPoint x="1670" y="86"/>
                            <mxPoint x="1670" y="-770"/>
                        </Array>
                    </mxGeometry>
                </mxCell>
                <mxCell id="181" style="edgeStyle=none;html=1;exitX=0.75;exitY=0;exitDx=0;exitDy=0;entryX=0.5;entryY=1;entryDx=0;entryDy=0;" parent="1" source="43" target="161" edge="1">
                    <mxGeometry relative="1" as="geometry">
                        <Array as="points">
                            <mxPoint x="1510" y="-500"/>
                            <mxPoint x="1265" y="-500"/>
                        </Array>
                    </mxGeometry>
                </mxCell>
                <mxCell id="182" style="edgeStyle=none;html=1;exitX=1;exitY=0.5;exitDx=0;exitDy=0;entryX=1;entryY=0.5;entryDx=0;entryDy=0;" parent="1" source="46" target="160" edge="1">
                    <mxGeometry relative="1" as="geometry">
                        <Array as="points">
                            <mxPoint x="1250" y="336"/>
                            <mxPoint x="1250" y="190"/>
                            <mxPoint x="1640" y="190"/>
                            <mxPoint x="1640" y="-600"/>
                        </Array>
                    </mxGeometry>
                </mxCell>
                <mxCell id="173" style="edgeStyle=none;html=1;exitX=0;exitY=0.25;exitDx=0;exitDy=0;entryX=0;entryY=0.5;entryDx=0;entryDy=0;" parent="1" source="31" target="155" edge="1">
                    <mxGeometry relative="1" as="geometry">
                        <Array as="points">
                            <mxPoint x="-20" y="53"/>
                            <mxPoint x="-20" y="-640"/>
                        </Array>
                    </mxGeometry>
                </mxCell>
                <mxCell id="191" style="edgeStyle=none;html=1;exitX=1;exitY=0.5;exitDx=0;exitDy=0;entryX=1;entryY=0.5;entryDx=0;entryDy=0;" parent="1" source="62" target="194" edge="1">
                    <mxGeometry relative="1" as="geometry">
                        <mxPoint x="2010" y="-450" as="targetPoint"/>
                        <Array as="points">
                            <mxPoint x="2180" y="86"/>
                            <mxPoint x="2180" y="-400"/>
                        </Array>
                    </mxGeometry>
                </mxCell>
                <mxCell id="192" style="edgeStyle=none;html=1;exitX=1;exitY=0.5;exitDx=0;exitDy=0;entryX=1;entryY=0.5;entryDx=0;entryDy=0;" parent="1" source="62" target="193" edge="1">
                    <mxGeometry relative="1" as="geometry">
                        <mxPoint x="2090" y="-810" as="targetPoint"/>
                        <Array as="points">
                            <mxPoint x="2180" y="86"/>
                            <mxPoint x="2180" y="-770"/>
                        </Array>
                    </mxGeometry>
                </mxCell>
            </root>
        </mxGraphModel>
    </diagram>
</mxfile>